<svg width="16" height="17" viewBox="0 0 16 17" fill="none" xmlns="http://www.w3.org/2000/svg">
<g id="healthicons:truck-driver-outline">
<g id="Group">
<path id="Vector" d="M7 4.48104C7 4.39263 7.03512 4.30785 7.09763 4.24534C7.16014 4.18282 7.24493 4.14771 7.33333 4.14771H8.66667C8.75507 4.14771 8.83986 4.18282 8.90237 4.24534C8.96488 4.30785 9 4.39263 9 4.48104C9 4.56944 8.96488 4.65423 8.90237 4.71674C8.83986 4.77925 8.75507 4.81437 8.66667 4.81437H7.33333C7.24493 4.81437 7.16014 4.77925 7.09763 4.71674C7.03512 4.65423 7 4.56944 7 4.48104Z" fill="black" fill-opacity="0.5"/>
<path id="Vector_2" fill-rule="evenodd" clip-rule="evenodd" d="M11.1214 6.98779C11.0004 7.08279 10.8434 7.15879 10.6541 7.22045C10.6625 7.30623 10.6668 7.39312 10.6668 7.48112C10.6666 7.84221 10.5932 8.19951 10.4508 8.53135C10.3084 8.8632 10.1002 9.16267 9.83862 9.41162C9.57707 9.66057 9.26769 9.85381 8.92922 9.97963C8.59076 10.1054 8.23027 10.1612 7.86962 10.1435C7.50896 10.1259 7.15565 10.0351 6.8311 9.87684C6.50656 9.71854 6.21754 9.49599 5.98158 9.22266C5.74562 8.94934 5.56762 8.63094 5.45839 8.28677C5.34915 7.9426 5.31095 7.57983 5.3461 7.22045C5.15677 7.15879 4.99977 7.08279 4.8791 6.98779C4.72244 6.86445 4.61744 6.69979 4.6051 6.50179C4.59344 6.31812 4.6661 6.16212 4.73877 6.05212C4.81047 5.94791 4.89566 5.85364 4.9921 5.77179C5.03922 5.7309 5.08433 5.69456 5.12744 5.66279C5.11455 5.59412 5.10099 5.5119 5.08677 5.41612C5.02802 4.99591 4.99906 4.57208 5.0001 4.14779C5.0001 4.04312 5.04477 3.96512 5.06544 3.93212C5.09144 3.89045 5.1221 3.85479 5.1501 3.82612C5.20577 3.76779 5.27777 3.70845 5.35677 3.65145C5.51677 3.53545 5.73677 3.40512 5.9981 3.28312C6.5191 3.03979 7.23477 2.81445 8.0001 2.81445C8.76544 2.81445 9.4811 3.04012 10.0021 3.28312C10.2268 3.38583 10.4415 3.50913 10.6434 3.65145C10.7224 3.70845 10.7944 3.76812 10.8501 3.82612C10.8781 3.85479 10.9088 3.89045 10.9348 3.93212C10.9554 3.96512 11.0001 4.04312 11.0001 4.14779C11.0001 4.68179 10.9568 5.11445 10.9134 5.41612C10.8992 5.51212 10.8857 5.59434 10.8728 5.66279C10.9154 5.69445 10.9618 5.73079 11.0084 5.77179C11.0918 5.84479 11.1871 5.93979 11.2614 6.05212C11.3344 6.16212 11.4068 6.31812 11.3954 6.50212C11.3831 6.69979 11.2781 6.86445 11.1214 6.98779ZM5.66744 4.25379C5.67244 4.70312 5.70977 5.06645 5.74677 5.32045C5.75566 5.38045 5.7641 5.43401 5.7721 5.48112H10.2281C10.2363 5.43379 10.2448 5.38023 10.2534 5.32045C10.2901 5.06645 10.3278 4.70312 10.3328 4.25379C10.3068 4.23188 10.28 4.21098 10.2524 4.19112C10.1321 4.10412 9.94944 3.99445 9.7201 3.88745C9.2591 3.67212 8.64144 3.48112 8.0001 3.48112C7.35877 3.48112 6.7411 3.67212 6.2801 3.88745C6.05077 3.99445 5.8681 4.10412 5.7481 4.19079C5.72041 4.21086 5.6935 4.23198 5.66744 4.25412M5.5961 6.14779L5.5951 6.14845C5.53756 6.18677 5.48245 6.22863 5.4301 6.27379C5.37077 6.32579 5.32344 6.37645 5.29477 6.42045C5.28811 6.43045 5.28199 6.4408 5.27644 6.45145L5.2911 6.46379C5.3411 6.50312 5.44844 6.56079 5.65777 6.61779C5.6991 6.6289 5.74344 6.63979 5.79077 6.65045L5.79377 6.65112C5.9611 6.68812 6.1671 6.72112 6.4181 6.74712C6.77377 6.78412 7.22144 6.80845 7.78077 6.81379L8.0001 6.81445C9.07577 6.81445 9.77144 6.74745 10.2068 6.65112L10.2094 6.65045C10.257 6.64001 10.3014 6.62912 10.3428 6.61779C10.5518 6.56112 10.6594 6.50312 10.7091 6.46379L10.7238 6.45145C10.7183 6.4408 10.7123 6.43046 10.7058 6.42045C10.6669 6.36609 10.6213 6.31681 10.5701 6.27379C10.5179 6.22864 10.4629 6.18678 10.4054 6.14845L10.4041 6.14779H5.5961ZM7.90944 7.48112C8.7901 7.48112 9.47277 7.43445 9.9961 7.35312C9.99877 7.39534 10.0001 7.43801 10.0001 7.48112C9.99987 7.74803 9.94621 8.0122 9.84228 8.25805C9.73836 8.50391 9.58627 8.72647 9.39499 8.91263C9.20371 9.09879 8.9771 9.24477 8.72852 9.34199C8.47994 9.4392 8.21441 9.48567 7.94759 9.47866C7.68076 9.47165 7.41804 9.4113 7.17491 9.30118C6.93177 9.19105 6.71314 9.03336 6.53189 8.83742C6.35065 8.64148 6.21046 8.41124 6.11959 8.16027C6.02871 7.9093 5.98899 7.64268 6.00277 7.37612C6.49044 7.44345 7.11544 7.48112 7.90944 7.48112ZM5.35944 13.7735C5.34199 13.8975 5.3333 14.0226 5.33344 14.1478V14.4811C5.33347 14.5544 5.30936 14.6256 5.26484 14.6838C5.22031 14.742 5.15785 14.7839 5.08711 14.8031C5.01637 14.8222 4.9413 14.8175 4.87351 14.7896C4.80573 14.7618 4.749 14.7124 4.7121 14.6491C4.48735 14.7707 4.22459 14.8015 3.97777 14.7355L3.33377 14.5628C3.07769 14.494 2.85939 14.3264 2.72687 14.0968C2.59436 13.8671 2.55847 13.5942 2.6271 13.3381L2.88577 12.3721C2.95444 12.116 3.12203 11.8976 3.3517 11.765C3.58136 11.6324 3.85428 11.5965 4.11044 11.6651L4.75444 11.8375C4.97844 11.8975 5.16444 12.0291 5.29377 12.2011C5.6024 11.7717 6.00888 11.4219 6.47956 11.1808C6.95024 10.9396 7.47158 10.8141 8.00044 10.8145C8.52901 10.8142 9.05005 10.9397 9.52048 11.1808C9.9909 11.4218 10.3972 11.7713 10.7058 12.2005C10.84 12.023 11.0295 11.8954 11.2444 11.8378L11.8884 11.6655C12.1445 11.5968 12.4174 11.6327 12.6471 11.7652C12.8767 11.8977 13.0444 12.116 13.1131 12.3721L13.3721 13.3385C13.4061 13.4653 13.4147 13.5976 13.3976 13.7278C13.3804 13.858 13.3378 13.9836 13.2721 14.0973C13.2064 14.211 13.119 14.3107 13.0148 14.3906C12.9106 14.4705 12.7916 14.5292 12.6648 14.5631L12.0211 14.7355C11.7747 14.8016 11.5124 14.7711 11.2878 14.6501C11.2508 14.7133 11.194 14.7626 11.1261 14.7903C11.0583 14.818 10.9833 14.8226 10.9126 14.8034C10.8419 14.7841 10.7795 14.7421 10.7351 14.6839C10.6906 14.6256 10.6666 14.5544 10.6668 14.4811V14.1478C10.6669 14.0226 10.6582 13.8975 10.6408 13.7735L8.9061 14.2385C8.82558 14.4108 8.69757 14.5566 8.5371 14.6588C8.37662 14.7609 8.19034 14.8152 8.0001 14.8152C7.80987 14.8152 7.62359 14.7609 7.46311 14.6588C7.30264 14.5566 7.17462 14.4108 7.0941 14.2385L5.35944 13.7735ZM7.0401 13.5335C7.08467 13.3814 7.16473 13.2421 7.27368 13.1271C7.38264 13.012 7.51737 12.9245 7.66677 12.8718V11.5018C7.19923 11.5609 6.75568 11.7428 6.38116 12.0288C6.00664 12.3149 5.71451 12.695 5.53444 13.1305L7.0401 13.5335ZM10.4658 13.1301C10.2857 12.6947 9.9935 12.3147 9.61898 12.0287C9.24447 11.7427 8.80094 11.5609 8.33344 11.5018V12.8715C8.63477 12.9781 8.8701 13.2248 8.9601 13.5338L10.4658 13.1301ZM11.1814 12.8901C11.1701 12.8478 11.1672 12.8037 11.1729 12.7603C11.1786 12.7169 11.1928 12.6751 11.2147 12.6371C11.2366 12.5992 11.2657 12.566 11.3004 12.5393C11.3352 12.5127 11.3748 12.4931 11.4171 12.4818L12.0611 12.3091C12.1465 12.2863 12.2374 12.2983 12.3139 12.3425C12.3904 12.3867 12.4462 12.4595 12.4691 12.5448L12.7281 13.5108C12.7394 13.5531 12.7423 13.5972 12.7366 13.6406C12.7309 13.684 12.7167 13.7259 12.6949 13.7638C12.673 13.8017 12.6438 13.8349 12.6091 13.8616C12.5744 13.8882 12.5347 13.9078 12.4924 13.9191L11.8484 14.0918C11.8061 14.1031 11.762 14.106 11.7186 14.1003C11.6752 14.0946 11.6333 14.0803 11.5954 14.0584C11.5574 14.0365 11.5242 14.0073 11.4976 13.9725C11.4709 13.9378 11.4514 13.8981 11.4401 13.8558L11.1814 12.8901ZM3.9381 12.3091C3.8958 12.2977 3.85166 12.2948 3.80821 12.3005C3.76477 12.3061 3.72287 12.3203 3.68491 12.3422C3.64696 12.3641 3.61369 12.3933 3.58701 12.428C3.56033 12.4628 3.54077 12.5025 3.52944 12.5448L3.27077 13.5105C3.25943 13.5527 3.25653 13.5968 3.26223 13.6403C3.26794 13.6837 3.28214 13.7255 3.30402 13.7634C3.32591 13.8014 3.35505 13.8346 3.38978 13.8612C3.42451 13.8879 3.46415 13.9075 3.50644 13.9188L4.15044 14.0915C4.19272 14.1028 4.23683 14.1057 4.28024 14.1C4.32364 14.0943 4.3655 14.0801 4.40342 14.0582C4.44134 14.0363 4.47458 14.0072 4.50123 13.9724C4.52789 13.9377 4.54744 13.8981 4.55877 13.8558L4.81744 12.8898C4.82883 12.8475 4.83177 12.8033 4.82609 12.7599C4.82041 12.7164 4.80622 12.6745 4.78433 12.6366C4.76244 12.5986 4.73328 12.5654 4.69853 12.5387C4.66377 12.512 4.6241 12.4924 4.58177 12.4811L3.9381 12.3091ZM8.33344 13.8145C8.33344 13.9029 8.29832 13.9876 8.23581 14.0502C8.17329 14.1127 8.08851 14.1478 8.0001 14.1478C7.9117 14.1478 7.82691 14.1127 7.7644 14.0502C7.70189 13.9876 7.66677 13.9029 7.66677 13.8145C7.66677 13.726 7.70189 13.6413 7.7644 13.5787C7.82691 13.5162 7.9117 13.4811 8.0001 13.4811C8.08851 13.4811 8.17329 13.5162 8.23581 13.5787C8.29832 13.6413 8.33344 13.726 8.33344 13.8145Z" fill="black" fill-opacity="0.5"/>
</g>
</g>
</svg>
