<svg width="16" height="17" viewBox="0 0 16 17" fill="none" xmlns="http://www.w3.org/2000/svg">
<g id="ant-design:number-outlined">
<path id="Vector" d="M13.625 6.9707C13.6938 6.9707 13.75 6.91445 13.75 6.8457V5.9082C13.75 5.83945 13.6938 5.7832 13.625 5.7832H11.0625V3.18945C11.0625 3.1207 11.0063 3.06445 10.9375 3.06445H9.9375C9.86875 3.06445 9.8125 3.1207 9.8125 3.18945V5.7832H6.25V3.18945C6.25 3.1207 6.19375 3.06445 6.125 3.06445H5.125C5.05625 3.06445 5 3.1207 5 3.18945V5.7832H2.375C2.30625 5.7832 2.25 5.83945 2.25 5.9082V6.8457C2.25 6.91445 2.30625 6.9707 2.375 6.9707H5V10.6582H2.375C2.30625 10.6582 2.25 10.7145 2.25 10.7832V11.7207C2.25 11.7895 2.30625 11.8457 2.375 11.8457H5V14.4395C5 14.5082 5.05625 14.5645 5.125 14.5645H6.125C6.19375 14.5645 6.25 14.5082 6.25 14.4395V11.8457H9.8125V14.4395C9.8125 14.5082 9.86875 14.5645 9.9375 14.5645H10.9375C11.0063 14.5645 11.0625 14.5082 11.0625 14.4395V11.8457H13.625C13.6938 11.8457 13.75 11.7895 13.75 11.7207V10.7832C13.75 10.7145 13.6938 10.6582 13.625 10.6582H11.0625V6.9707H13.625ZM9.8125 10.6582H6.25V6.9707H9.8125V10.6582Z" fill="black" fill-opacity="0.5"/>
</g>
</svg>
