<svg width="16" height="17" viewBox="0 0 16 17" fill="none" xmlns="http://www.w3.org/2000/svg">
<g id="system-uicons:location">
<g id="Group">
<path id="Vector" fill-rule="evenodd" clip-rule="evenodd" d="M7.81434 14.6127L8.28396 14.0836C8.81684 13.4733 9.29614 12.8943 9.72259 12.3435L10.0746 11.8791C11.5445 9.89869 12.2798 8.32684 12.2798 7.16508C12.2798 4.68525 10.2808 2.67505 7.81434 2.67505C5.34792 2.67505 3.34888 4.68525 3.34888 7.16508C3.34888 8.32684 4.08419 9.89869 5.55407 11.8791L5.9061 12.3435C6.51448 13.123 7.15098 13.8795 7.81434 14.6127Z" stroke="black" stroke-opacity="0.5" stroke-width="0.976821" stroke-linecap="round" stroke-linejoin="round"/>
<path id="Vector_2" d="M7.81447 9.00125C8.84206 9.00125 9.67508 8.16823 9.67508 7.14064C9.67508 6.11305 8.84206 5.28003 7.81447 5.28003C6.78688 5.28003 5.95386 6.11305 5.95386 7.14064C5.95386 8.16823 6.78688 9.00125 7.81447 9.00125Z" stroke="black" stroke-opacity="0.5" stroke-width="0.976821" stroke-linecap="round" stroke-linejoin="round"/>
</g>
</g>
</svg>
