<svg width="16" height="17" viewBox="0 0 16 17" fill="none" xmlns="http://www.w3.org/2000/svg">
<g id="clarity:wifi-line" clip-path="url(#clip0_218_20092)">
<path id="Vector" d="M14.9112 4.45896C12.8592 3.10259 10.4523 2.38239 7.9925 2.38871C5.53272 2.39504 3.12957 3.12761 1.08454 4.49451C1.0361 4.5272 0.994566 4.56911 0.962318 4.61784C0.93007 4.66658 0.907737 4.72118 0.896594 4.77855C0.87409 4.89441 0.898531 5.01446 0.96454 5.11229C1.03055 5.21013 1.13272 5.27773 1.24858 5.30024C1.36443 5.32274 1.48448 5.2983 1.58232 5.23229C3.48193 3.96405 5.71356 3.2846 7.99762 3.27907C10.2817 3.27354 12.5166 3.94216 14.4223 5.20118C14.5207 5.2637 14.6398 5.28503 14.7538 5.26058C14.8678 5.23613 14.9676 5.16787 15.0318 5.07049C15.0959 4.97312 15.1192 4.85445 15.0967 4.74005C15.0741 4.62565 15.0075 4.5247 14.9112 4.45896Z" fill="black" fill-opacity="0.5"/>
<path id="Vector_2" d="M8.02229 5.57886C6.1455 5.57654 4.31273 6.14715 2.76895 7.21442C2.69903 7.28909 2.65701 7.38559 2.64998 7.48764C2.64294 7.58969 2.67133 7.69104 2.73034 7.7746C2.78935 7.85815 2.87537 7.91879 2.9739 7.94629C3.07243 7.97379 3.17743 7.96645 3.27118 7.92553C4.66422 6.97296 6.31247 6.4633 8.00006 6.4633C9.68766 6.4633 11.3359 6.97296 12.729 7.92553C12.8262 7.98122 12.9408 7.99815 13.05 7.97293C13.1591 7.94771 13.2547 7.8822 13.3176 7.78951C13.3805 7.69682 13.4061 7.58378 13.3893 7.47303C13.3724 7.36228 13.3144 7.26198 13.2267 7.1922C11.694 6.14251 9.88 5.58018 8.02229 5.57886Z" fill="black" fill-opacity="0.5"/>
<path id="Vector_3" d="M8.0221 8.77004C6.74215 8.77219 5.49638 9.18329 4.46655 9.94337C4.37968 10.0158 4.32367 10.1186 4.30993 10.2308C4.2962 10.3431 4.32576 10.4563 4.39261 10.5475C4.45946 10.6387 4.55857 10.701 4.66974 10.7217C4.78092 10.7424 4.8958 10.72 4.99099 10.6589C5.86627 10.0129 6.92402 9.66137 8.01187 9.65498C9.09972 9.64859 10.1615 9.98767 11.0443 10.6234C11.0903 10.6677 11.1453 10.7016 11.2055 10.7227C11.2658 10.7439 11.3299 10.7518 11.3935 10.7459C11.4571 10.7401 11.5186 10.7206 11.574 10.6888C11.6294 10.657 11.6773 10.6136 11.7144 10.5617C11.7515 10.5097 11.777 10.4504 11.7891 10.3877C11.8012 10.325 11.7997 10.2604 11.7846 10.1984C11.7695 10.1363 11.7412 10.0782 11.7017 10.0281C11.6621 9.97797 11.6123 9.93694 11.5554 9.90782C10.5273 9.16516 9.29045 8.76689 8.0221 8.77004Z" fill="black" fill-opacity="0.5"/>
<path id="Vector_4" d="M7.99995 11.6677C7.64834 11.6677 7.30462 11.772 7.01227 11.9673C6.71991 12.1627 6.49205 12.4403 6.35749 12.7652C6.22294 13.09 6.18773 13.4475 6.25633 13.7923C6.32492 14.1372 6.49424 14.454 6.74287 14.7026C6.99149 14.9512 7.30826 15.1205 7.65312 15.1891C7.99797 15.2577 8.35543 15.2225 8.68027 15.088C9.00512 14.9534 9.28277 14.7255 9.47811 14.4332C9.67346 14.1408 9.77772 13.7971 9.77772 13.4455C9.77772 12.974 9.59042 12.5218 9.25703 12.1884C8.92363 11.855 8.47144 11.6677 7.99995 11.6677ZM7.99995 14.3344C7.82414 14.3344 7.65228 14.2823 7.50611 14.1846C7.35993 14.0869 7.246 13.9481 7.17872 13.7857C7.11144 13.6232 7.09384 13.4445 7.12814 13.2721C7.16244 13.0997 7.24709 12.9413 7.37141 12.817C7.49572 12.6926 7.65411 12.608 7.82653 12.5737C7.99896 12.5394 8.17769 12.557 8.34011 12.6243C8.50253 12.6916 8.64136 12.8055 8.73903 12.9517C8.8367 13.0978 8.88884 13.2697 8.88884 13.4455C8.88884 13.6813 8.79518 13.9073 8.62849 14.074C8.46179 14.2407 8.23569 14.3344 7.99995 14.3344Z" fill="black" fill-opacity="0.5"/>
</g>
<defs>
<clipPath id="clip0_218_20092">
<rect width="16" height="16" fill="white" transform="translate(0 0.814453)"/>
</clipPath>
</defs>
</svg>
