<svg width="16" height="16" viewBox="0 0 16 16" fill="none" xmlns="http://www.w3.org/2000/svg">
<g id="f7:location">
<path id="Vector" d="M2.14092 8.05038C2.34407 8.24783 2.54722 8.31175 2.94806 8.31745L7.34351 8.33479C7.38414 8.33479 7.41882 8.34074 7.43641 8.35808C7.45376 8.37542 7.45945 8.41035 7.45945 8.45098L7.4768 12.8468C7.48274 13.2474 7.54666 13.4505 7.74981 13.6537C8.02282 13.9324 8.40608 13.8861 8.69049 13.6074C8.84161 13.4562 8.9635 13.2067 9.07374 12.9744L13.5158 3.39371C13.7479 2.90614 13.7189 2.54592 13.4811 2.31353C13.2485 2.07569 12.8885 2.04671 12.4009 2.27885L2.82023 6.72096C2.58785 6.83121 2.33837 6.9531 2.18725 7.10423C1.90854 7.38864 1.86221 7.77166 2.14092 8.05038ZM3.31968 7.43522C3.31373 7.41788 3.32538 7.40053 3.36031 7.38294L12.5518 3.16083C12.5984 3.14349 12.6214 3.14349 12.639 3.15513C12.6506 3.17247 12.6506 3.19576 12.6331 3.24234L8.41202 12.434C8.39468 12.469 8.37734 12.4806 8.36 12.4747C8.34811 12.4747 8.33076 12.4516 8.33076 12.4283L8.35975 7.84103C8.35975 7.69585 8.30772 7.60319 8.2495 7.54497C8.19129 7.487 8.09838 7.43472 7.95345 7.43472L3.36625 7.46371C3.34297 7.46371 3.31993 7.44637 3.31993 7.43472" fill="black" fill-opacity="0.5"/>
</g>
</svg>
