<svg width="16" height="17" viewBox="0 0 16 17" fill="none" xmlns="http://www.w3.org/2000/svg">
<g id="system-uicons:location">
<g id="Group">
<path id="Vector" fill-rule="evenodd" clip-rule="evenodd" d="M7.81459 14.3118L8.28421 13.7827C8.81709 13.1724 9.29638 12.5934 9.72283 12.0426L10.0749 11.5782C11.5447 9.59778 12.2801 8.02594 12.2801 6.86417C12.2801 4.38435 10.281 2.37415 7.81459 2.37415C5.34816 2.37415 3.34912 4.38435 3.34912 6.86417C3.34912 8.02594 4.08443 9.59778 5.55432 11.5782L5.90635 12.0426C6.51472 12.8221 7.15122 13.5785 7.81459 14.3118Z" stroke="black" stroke-opacity="0.5" stroke-width="0.976821" stroke-linecap="round" stroke-linejoin="round"/>
<path id="Vector_2" d="M7.81471 8.70023C8.8423 8.70023 9.67532 7.8672 9.67532 6.83962C9.67532 5.81203 8.8423 4.979 7.81471 4.979C6.78713 4.979 5.9541 5.81203 5.9541 6.83962C5.9541 7.8672 6.78713 8.70023 7.81471 8.70023Z" stroke="black" stroke-opacity="0.5" stroke-width="0.976821" stroke-linecap="round" stroke-linejoin="round"/>
</g>
</g>
</svg>
