<svg width="17" height="19" viewBox="0 0 17 19" fill="none" xmlns="http://www.w3.org/2000/svg">
<path id="Vector" d="M16.5235 13.3193C16.5181 13.3099 16.5107 13.3023 16.5048 13.2935L16.5053 13.2932L9.88235 1.82194L9.87891 1.82391C9.82423 1.73669 9.74453 1.66798 9.65022 1.62673L9.65957 1.62132L6.94924 0.0564143V0.0672457C6.88064 0.0281476 6.80394 0.00542789 6.72511 0.000858871C6.64629 -0.00371015 6.56747 0.00999526 6.49481 0.0409057L6.49186 0.0357361L6.44115 0.0650302C6.44016 0.0657687 6.43893 0.0657688 6.43795 0.0665073C6.43696 0.0669997 6.43622 0.0679842 6.43499 0.0684766L1.22038 3.07913C1.14398 3.12334 1.08032 3.18656 1.03559 3.26265C0.990854 3.33875 0.966572 3.42512 0.965102 3.51338L0.963379 3.51239V6.64219L0.968548 6.63924C0.956978 6.74435 0.975933 6.8539 1.0328 6.95261C1.03625 6.95852 1.04068 6.96295 1.04437 6.96861L7.64566 18.4022C7.65206 18.4158 7.65649 18.4298 7.66412 18.4431C7.73049 18.5576 7.83854 18.642 7.96569 18.6788C8.09285 18.7155 8.22928 18.7017 8.3465 18.6403L8.34773 18.6422L16.3396 14.0283L16.3362 14.0221C16.4541 13.9536 16.54 13.8412 16.5751 13.7094C16.6103 13.5777 16.5917 13.4374 16.5235 13.3193ZM5.42151 4.26862C5.25854 4.36272 5.07132 4.40637 4.88354 4.39407C4.69575 4.38176 4.51584 4.31404 4.36654 4.19947C4.21725 4.0849 4.10528 3.92864 4.0448 3.75043C3.98432 3.57223 3.97805 3.38009 4.02677 3.19832C4.07549 3.01655 4.17702 2.85331 4.31852 2.72925C4.46002 2.60519 4.63514 2.52587 4.82172 2.50133C5.0083 2.4768 5.19796 2.50814 5.36673 2.5914C5.5355 2.67466 5.67578 2.8061 5.76984 2.96909C5.83232 3.07729 5.87287 3.19673 5.88917 3.3206C5.90548 3.44447 5.89722 3.57034 5.86488 3.69102C5.83253 3.81169 5.77673 3.92482 5.70065 4.02392C5.62458 4.12303 5.52973 4.20618 5.42151 4.26862Z" fill="#2AC395"/>
</svg>
